REM DIRINDEX 1\5,1\2\6,1\2\7,1\3\8,1\3\9,1\4\10,1\4\11,1\4\12
REM DIRNAME cjc026,folder01,folder02,folder03,folder04,folder05,folder06,folder07,folder08,folder09,folder10,folder11
TITLE ""
FILE "EJE_DB3000_5th_3B_05.mp3" MP3
  TRACK 01 AUDIO
    TITLE "0:"
    INDEX 01 00:00:00
  TRACK 02 AUDIO
    TITLE "10:cjc026_08544"
    INDEX 01 00:00:08
  TRACK 03 AUDIO
    TITLE "0:"
    INDEX 01 00:01:30
  TRACK 04 AUDIO
    TITLE "11:cjc026_08545"
    INDEX 01 00:01:70
  TRACK 05 AUDIO
    TITLE "0:"
    INDEX 01 00:03:23
  TRACK 06 AUDIO
    TITLE "12:cjc026_08546"
    INDEX 01 00:03:58
  TRACK 07 AUDIO
    TITLE "0:"
    INDEX 01 00:05:05
  TRACK 08 AUDIO
    TITLE "10:cjc026_08547"
    INDEX 01 00:05:43
  TRACK 09 AUDIO
    TITLE "0:"
    INDEX 01 00:06:63
  TRACK 10 AUDIO
    TITLE "11:cjc026_08548"
    INDEX 01 00:07:28
  TRACK 11 AUDIO
    TITLE "0:"
    INDEX 01 00:08:39
  TRACK 12 AUDIO
    TITLE "12:cjc026_08549"
    INDEX 01 00:09:00
  TRACK 13 AUDIO
    TITLE "0:"
    INDEX 01 00:10:22
  TRACK 14 AUDIO
    TITLE "10:cjc026_08550"
    INDEX 01 00:10:60
  TRACK 15 AUDIO
    TITLE "0:"
    INDEX 01 00:12:09
  TRACK 16 AUDIO
    TITLE "11:cjc026_08551"
    INDEX 01 00:12:45
  TRACK 17 AUDIO
    TITLE "0:"
    INDEX 01 00:14:16
  TRACK 18 AUDIO
    TITLE "12:cjc026_08552"
    INDEX 01 00:14:54
  TRACK 19 AUDIO
    TITLE "0:"
    INDEX 01 00:16:01
  TRACK 20 AUDIO
    TITLE "10:cjc026_08553"
    INDEX 01 00:16:39
  TRACK 21 AUDIO
    TITLE "0:"
    INDEX 01 00:17:69
  TRACK 22 AUDIO
    TITLE "11:cjc026_08554"
    INDEX 01 00:18:29
  TRACK 23 AUDIO
    TITLE "0:"
    INDEX 01 00:19:51
  TRACK 24 AUDIO
    TITLE "12:cjc026_08555"
    INDEX 01 00:20:14
  TRACK 25 AUDIO
    TITLE "0:"
    INDEX 01 00:21:45
  TRACK 26 AUDIO
    TITLE "10:cjc026_08556"
    INDEX 01 00:22:05
  TRACK 27 AUDIO
    TITLE "0:"
    INDEX 01 00:23:30
  TRACK 28 AUDIO
    TITLE "11:cjc026_08557"
    INDEX 01 00:23:65
  TRACK 29 AUDIO
    TITLE "0:"
    INDEX 01 00:25:17
  TRACK 30 AUDIO
    TITLE "12:cjc026_08558"
    INDEX 01 00:25:50
  TRACK 31 AUDIO
    TITLE "0:"
    INDEX 01 00:27:00
  TRACK 32 AUDIO
    TITLE "10:cjc026_08559"
    INDEX 01 00:27:37
  TRACK 33 AUDIO
    TITLE "0:"
    INDEX 01 00:28:54
  TRACK 34 AUDIO
    TITLE "11:cjc026_08560"
    INDEX 01 00:29:17
  TRACK 35 AUDIO
    TITLE "0:"
    INDEX 01 00:30:53
  TRACK 36 AUDIO
    TITLE "12:cjc026_08561"
    INDEX 01 00:31:13
  TRACK 37 AUDIO
    TITLE "0:"
    INDEX 01 00:32:30
  TRACK 38 AUDIO
    TITLE "10:cjc026_08562"
    INDEX 01 00:32:67
  TRACK 39 AUDIO
    TITLE "0:"
    INDEX 01 00:34:12
  TRACK 40 AUDIO
    TITLE "11:cjc026_08563"
    INDEX 01 00:34:50
  TRACK 41 AUDIO
    TITLE "0:"
    INDEX 01 00:36:16
  TRACK 42 AUDIO
    TITLE "12:cjc026_08564"
    INDEX 01 00:36:51
  TRACK 43 AUDIO
    TITLE "0:"
    INDEX 01 00:37:70
  TRACK 44 AUDIO
    TITLE "10:cjc026_08565"
    INDEX 01 00:38:33
  TRACK 45 AUDIO
    TITLE "0:"
    INDEX 01 00:39:55
  TRACK 46 AUDIO
    TITLE "11:cjc026_08566"
    INDEX 01 00:40:15
  TRACK 47 AUDIO
    TITLE "0:"
    INDEX 01 00:41:51
  TRACK 48 AUDIO
    TITLE "12:cjc026_08567"
    INDEX 01 00:42:14
  TRACK 49 AUDIO
    TITLE "0:"
    INDEX 01 00:43:33
  TRACK 50 AUDIO
    TITLE "10:cjc026_08568"
    INDEX 01 00:43:74
  TRACK 51 AUDIO
    TITLE "0:"
    INDEX 01 00:45:05
  TRACK 52 AUDIO
    TITLE "11:cjc026_08569"
    INDEX 01 00:45:43
  TRACK 53 AUDIO
    TITLE "0:"
    INDEX 01 00:47:20
  TRACK 54 AUDIO
    TITLE "12:cjc026_08570"
    INDEX 01 00:47:57
  TRACK 55 AUDIO
    TITLE "0:"
    INDEX 01 00:48:63
  TRACK 56 AUDIO
    TITLE "10:cjc026_08571"
    INDEX 01 00:49:29
  TRACK 57 AUDIO
    TITLE "0:"
    INDEX 01 00:50:46
  TRACK 58 AUDIO
    TITLE "11:cjc026_08572"
    INDEX 01 00:51:06
  TRACK 59 AUDIO
    TITLE "0:"
    INDEX 01 00:52:39
  TRACK 60 AUDIO
    TITLE "12:cjc026_08573"
    INDEX 01 00:53:02
  TRACK 61 AUDIO
    TITLE "0:"
    INDEX 01 00:54:18
  TRACK 62 AUDIO
    TITLE "10:cjc026_08574"
    INDEX 01 00:54:54
  TRACK 63 AUDIO
    TITLE "0:"
    INDEX 01 00:55:68
  TRACK 64 AUDIO
    TITLE "11:cjc026_08575"
    INDEX 01 00:56:30
  TRACK 65 AUDIO
    TITLE "0:"
    INDEX 01 00:57:74
  TRACK 66 AUDIO
    TITLE "12:cjc026_08576"
    INDEX 01 00:58:34
  TRACK 67 AUDIO
    TITLE "0:"
    INDEX 01 00:59:51
